<svg width="28" height="37" viewBox="0 0 28 37" fill="none" xmlns="http://www.w3.org/2000/svg">
<path d="M14 37C11.4739 34.8452 9.13238 32.483 7 29.938C3.8 26.116 1.76733e-06 20.424 1.76733e-06 15C-0.00283456 9.33507 3.4085 4.22676 8.64214 2.05877C13.8758 -0.109213 19.9001 1.09046 23.904 5.09798C26.5369 7.71919 28.0118 11.2848 28.0001 15C28.0001 20.424 24.2 26.116 21 29.938C18.8676 32.483 16.5261 34.8452 14 37ZM14 8.99998C11.8564 8.99998 9.87565 10.1436 8.80385 12C7.73206 13.8564 7.73206 16.1436 8.80385 18C9.87565 19.8564 11.8564 21 14 21C17.3137 21 20 18.3137 20 15C20 11.6863 17.3137 8.99998 14 8.99998Z"/>
</svg>
