<svg width="18" height="22" viewBox="0 0 18 22" fill="none" xmlns="http://www.w3.org/2000/svg">
<path d="M8.99998 21.5C7.5264 20.2431 6.16053 18.8651 4.91665 17.3805C3.04998 15.151 0.833314 11.8307 0.833314 8.66666C0.831659 5.36213 2.8216 2.38228 5.87456 1.11762C8.92752 -0.147034 12.4417 0.552774 14.7773 2.89049C16.3132 4.41954 17.1735 6.49945 17.1667 8.66666C17.1667 11.8307 14.95 15.151 13.0833 17.3805C11.8394 18.8651 10.4736 20.2431 8.99998 21.5ZM8.99998 5.16666C7.74955 5.16666 6.59411 5.83376 5.96889 6.91666C5.34368 7.99956 5.34368 9.33376 5.96889 10.4167C6.59411 11.4996 7.74955 12.1667 8.99998 12.1667C10.933 12.1667 12.5 10.5997 12.5 8.66666C12.5 6.73366 10.933 5.16666 8.99998 5.16666Z"/>
</svg>
